<svg width="266" height="266" viewBox="0 0 266 266" fill="none" xmlns="http://www.w3.org/2000/svg">
<path d="M216.319 83.3589C204.844 64.0734 187.036 49.3634 165.931 41.7355C144.825 34.1076 121.728 34.0337 100.574 41.5263C79.4208 49.0189 61.5194 63.6145 49.9207 82.8262C38.3219 102.038 33.7433 124.677 36.9651 146.886C40.1868 169.095 51.0096 189.5 67.5893 204.624C84.169 219.748 105.48 228.655 127.891 229.828C150.301 231.001 172.426 224.367 190.493 211.056C208.561 197.745 221.455 178.582 226.977 156.83L132.96 132.96L216.319 83.3589Z" fill="#F7B8D3"/>
<circle cx="147.96" cy="74.9603" r="8" fill="black"/>
<circle cx="149.46" cy="72.4603" r="2.5" fill="white"/>
<rect x="134.295" y="80.5145" width="1" height="7.80392" transform="rotate(-109.554 134.295 80.5145)" fill="black"/>
<rect x="132.883" y="74.0494" width="1" height="7.80392" transform="rotate(-87.2478 132.883 74.0494)" fill="black"/>
<rect x="134.078" y="68.6426" width="1" height="7.80392" transform="rotate(-67.9051 134.078 68.6426)" fill="black"/>
</svg>
